<svg xmlns="http://www.w3.org/2000/svg" width="400" height="400" viewBox="0 0 400 400" version="1.1"><path d="M 243 104.369 C 235.260 106.060, 228.884 109.527, 223.650 114.890 C 221.175 117.426, 207.630 136.150, 193.549 156.500 L 167.947 193.500 158.054 194.118 C 149.931 194.626, 146.996 195.281, 141.651 197.783 C 129.540 203.450, 121.405 213.779, 119.087 226.434 C 118.489 229.697, 118 242.882, 118 255.733 C 118 289.144, 117.084 288, 143.823 288 L 162.200 288 165.600 284.600 L 169 281.200 169 248.671 C 169 221.034, 169.226 215.916, 170.506 214.637 C 172.920 212.222, 175.909 211.708, 178.299 213.296 C 179.510 214.100, 189.801 228.200, 201.168 244.629 C 225.651 280.013, 227.224 281.696, 239.759 285.919 C 245.236 287.764, 248.310 288, 266.846 288 C 293.785 288, 293.284 288.428, 283.061 274.149 C 279.078 268.585, 244.737 219.020, 237.368 208.199 C 236.132 206.384, 234.637 202.559, 234.047 199.699 C 232.055 190.056, 233.028 188.198, 261.912 146.500 C 276.389 125.600, 288.480 107.872, 288.780 107.105 C 289.080 106.338, 288.491 105.101, 287.471 104.355 C 285.071 102.601, 251.047 102.611, 243 104.369" stroke="none" fill="#f9fafa" fill-rule="evenodd"/><path d="M -0 200.002 L -0 400.005 200.250 399.752 L 400.500 399.500 400.752 199.750 L 401.005 0 200.502 0 L 0 0 -0 200.002 M 0.490 200.500 C 0.490 310.500, 0.607 355.352, 0.750 300.170 C 0.893 244.989, 0.893 154.989, 0.750 100.170 C 0.607 45.352, 0.490 90.500, 0.490 200.500 M 243 104.369 C 235.260 106.060, 228.884 109.527, 223.650 114.890 C 221.175 117.426, 207.630 136.150, 193.549 156.500 L 167.947 193.500 158.054 194.118 C 149.931 194.626, 146.996 195.281, 141.651 197.783 C 129.540 203.450, 121.405 213.779, 119.087 226.434 C 118.489 229.697, 118 242.882, 118 255.733 C 118 289.144, 117.084 288, 143.823 288 L 162.200 288 165.600 284.600 L 169 281.200 169 248.671 C 169 221.034, 169.226 215.916, 170.506 214.637 C 172.920 212.222, 175.909 211.708, 178.299 213.296 C 179.510 214.100, 189.801 228.200, 201.168 244.629 C 225.651 280.013, 227.224 281.696, 239.759 285.919 C 245.236 287.764, 248.310 288, 266.846 288 C 293.785 288, 293.284 288.428, 283.061 274.149 C 279.078 268.585, 244.737 219.020, 237.368 208.199 C 236.132 206.384, 234.637 202.559, 234.047 199.699 C 232.055 190.056, 233.028 188.198, 261.912 146.500 C 276.389 125.600, 288.480 107.872, 288.780 107.105 C 289.080 106.338, 288.491 105.101, 287.471 104.355 C 285.071 102.601, 251.047 102.611, 243 104.369" stroke="none" fill="#0404a3" fill-rule="evenodd"/></svg>