<svg xmlns="http://www.w3.org/2000/svg" width="256" height="256" viewBox="0 0 256 256" version="1.1"><path d="M 160.804 43.918 C 149.525 47.545, 147.487 49.820, 119.984 89.464 L 94.637 126 87.908 126 C 71.646 126, 58.362 134.321, 51.803 148.617 C 49.693 153.214, 49.541 155.068, 49.208 180.254 L 48.855 207.009 51.850 210.004 L 54.846 213 72.500 213 L 90.154 213 93.077 210.077 L 96 207.154 96 176.600 L 96 146.046 98.493 144.413 C 103.436 141.174, 104.588 142.372, 125.247 172.230 C 136.005 187.778, 146.313 201.938, 148.153 203.696 C 149.994 205.454, 154.200 208.154, 157.500 209.696 L 163.500 212.500 185.500 212.500 C 206.855 212.500, 207.498 212.441, 207.434 210.500 C 207.398 209.400, 196.608 192.981, 183.456 174.014 C 170.304 155.047, 158.746 137.964, 157.772 136.053 C 155.849 132.281, 155.406 123.694, 156.927 119.692 C 157.437 118.351, 168.946 101.230, 182.504 81.646 C 197.174 60.454, 207.016 45.322, 206.814 44.269 C 206.504 42.656, 204.714 42.482, 186.487 42.293 C 169.467 42.117, 165.654 42.359, 160.804 43.918" stroke="none" fill="#fbfafb" fill-rule="evenodd"/><path d="M -0 128.004 L -0 256.008 128.250 255.754 L 256.500 255.500 256.754 127.750 L 257.008 0 128.504 0 L 0 0 -0 128.004 M 0.485 128.500 C 0.485 198.900, 0.604 227.553, 0.750 192.172 C 0.896 156.792, 0.896 99.192, 0.750 64.172 C 0.604 29.153, 0.485 58.100, 0.485 128.500 M 160.804 43.918 C 149.525 47.545, 147.487 49.820, 119.984 89.464 L 94.637 126 87.908 126 C 71.646 126, 58.362 134.321, 51.803 148.617 C 49.693 153.214, 49.541 155.068, 49.208 180.254 L 48.855 207.009 51.850 210.004 L 54.846 213 72.500 213 L 90.154 213 93.077 210.077 L 96 207.154 96 176.600 L 96 146.046 98.493 144.413 C 103.436 141.174, 104.588 142.372, 125.247 172.230 C 136.005 187.778, 146.313 201.938, 148.153 203.696 C 149.994 205.454, 154.200 208.154, 157.500 209.696 L 163.500 212.500 185.500 212.500 C 206.855 212.500, 207.498 212.441, 207.434 210.500 C 207.398 209.400, 196.608 192.981, 183.456 174.014 C 170.304 155.047, 158.746 137.964, 157.772 136.053 C 155.849 132.281, 155.406 123.694, 156.927 119.692 C 157.437 118.351, 168.946 101.230, 182.504 81.646 C 197.174 60.454, 207.016 45.322, 206.814 44.269 C 206.504 42.656, 204.714 42.482, 186.487 42.293 C 169.467 42.117, 165.654 42.359, 160.804 43.918" stroke="none" fill="#5c44d4" fill-rule="evenodd"/></svg>